<svg version="1.1" id="Layer_1" xmlns:x="ns_extend;" xmlns:i="ns_ai;" xmlns:graph="ns_graphs;" xmlns="http://www.w3.org/2000/svg" xmlns:xlink="http://www.w3.org/1999/xlink" x="0px" y="0px" viewBox="0 0 226 48" style="enable-background:new 0 0 226 48;" xml:space="preserve">
 <style type="text/css">
  .st0{fill:#FFFFFF;filter:url(#Adobe_OpacityMaskFilter);}
	.st1{mask:url(#mask0_2091_84461_1_);}
	.st2{fill-rule:evenodd;clip-rule:evenodd;fill:#B40000;}
	.st3{fill-rule:evenodd;clip-rule:evenodd;fill:#FF0001;}
	.st4{fill-rule:evenodd;clip-rule:evenodd;fill:#FF009F;}
	.st5{fill-rule:evenodd;clip-rule:evenodd;}
 </style>
 <metadata>
  <sfw xmlns="ns_sfw;">
   <slices>
   </slices>
   <sliceSourceBounds bottomLeftOrigin="true" height="48" width="226" x="30.2" y="-212.2">
   </sliceSourceBounds>
  </sfw>
 </metadata>
 <g>
  <defs>
   <filter id="Adobe_OpacityMaskFilter" filterUnits="userSpaceOnUse" x="0" y="0" width="54" height="48">
    <feColorMatrix type="matrix" values="1 0 0 0 0  0 1 0 0 0  0 0 1 0 0  0 0 0 1 0">
    </feColorMatrix>
   </filter>
  </defs>
  <mask maskUnits="userSpaceOnUse" x="0" y="0" width="54" height="48" id="mask0_2091_84461_1_">
   <path class="st0" d="M0,0H54v48H0V0z">
   </path>
  </mask>
  <g class="st1">
   <path class="st2" d="M33.7,32.3L33,0l-6.1,35.2L34.1,48L33.7,32.3z">
   </path>
   <path class="st3" d="M54,48L33,0l1.1,48H54z">
   </path>
   <path class="st4" d="M33,0L0,48h24.7L33,0z">
   </path>
  </g>
  <path class="st2" d="M18.8,20.7L34.1,48H54L18.8,20.7z">
  </path>
  <path class="st5" d="M74.5,34.5h3.3l2.3-5.2h8.8l2.1,5.2h3.4l-9.8-22.6L74.5,34.5z M84.6,19.1l3,7.2h-6.2L84.6,19.1z">
  </path>
  <path class="st5" d="M109.7,16.2v18.2h-3.1V16.2h-4.7v-3h12.5v3H109.7z">
  </path>
  <path class="st5" d="M128.5,21.5h8.8v-8.3h3.1v21.3h-3.1v-9.9h-8.8v9.9h-3.1V13.2h3.1V21.5z">
  </path>
  <path class="st5" d="M164.8,16.2h-8.2v5.1h8v3h-8v7.1h8.2v3h-11.3V13.2h11.3V16.2z">
  </path>
  <path class="st5" d="M177.2,34.5h3.1V19.6l14.9,16.2V13.2h-3.1V28l-14.9-16.2V34.5z">
  </path>
  <path class="st5" d="M220.5,29.3h-8.8l-2.3,5.2h-3.3l10.1-22.6l9.8,22.6h-3.4L220.5,29.3z M219.2,26.3l-3-7.2l-3.2,7.2H219.2z">
  </path>
 </g>
</svg>