<svg width="125" height="43" viewBox="0 0 125 43" fill="none" xmlns="http://www.w3.org/2000/svg">
<path fill-rule="evenodd" clip-rule="evenodd" d="M6.95248 3.72346C6.95248 0.960894 8.61485 0 11.4646 0C12.2958 0 13.127 0.120112 13.9582 0.240223V2.40223C13.3645 2.40223 12.8895 2.40223 12.4145 2.40223C10.5147 2.40223 9.68351 2.64246 9.68351 3.84358V5.88547H13.8394V8.04749H9.68351V20.6592H6.95248V8.04749H3.86523V5.88547H6.95248V3.72346ZM15.1455 0.360333H17.9953V3.48324H15.1455V0.360333ZM15.1455 5.88547H17.9953V20.7793H15.1455V5.88547Z" fill="#121417"/>
<path fill-rule="evenodd" clip-rule="evenodd" d="M21.083 5.88572H23.9328V8.64829C25.2389 6.24606 27.1388 5.40527 29.0386 5.40527C29.7511 5.40527 30.1073 5.40527 30.701 5.52539V8.52818C29.9885 8.40807 29.5136 8.28796 28.6824 8.28796C25.8326 8.28796 23.9328 9.96952 23.9328 13.2125V20.7796H21.083V5.88572Z" fill="#121417"/>
<path fill-rule="evenodd" clip-rule="evenodd" d="M34.2629 16.0952C34.2629 17.4165 35.3315 19.098 38.8937 19.098C42.5747 19.098 43.4059 17.7768 43.4059 16.8159C43.4059 15.855 42.8122 15.1343 40.5561 14.8941L35.9252 14.2935C33.7879 14.0533 31.888 12.612 31.888 10.3299C31.888 7.32707 34.5003 5.52539 38.6562 5.52539C43.5246 5.52539 45.6619 7.56729 45.8994 10.45H43.0496C42.9309 9.00863 41.506 7.6874 38.6562 7.6874C36.8751 7.6874 34.7378 8.16785 34.7378 9.96952C34.7378 10.9304 35.2128 11.531 37.2314 11.7712L41.2685 12.2516C44.9495 12.7321 46.4931 14.0533 46.4931 16.2153C46.4931 19.6986 43.5246 21.26 39.0125 21.26C35.569 21.26 31.7693 20.4192 31.4131 16.0952C31.4131 16.0952 34.2629 16.0952 34.2629 16.0952Z" fill="#121417"/>
<path fill-rule="evenodd" clip-rule="evenodd" d="M50.0556 1.32129H52.9054V5.88554H57.18V8.04755H52.9054V17.176C52.9054 18.3772 53.7365 18.7375 55.1614 18.7375C55.7551 18.7375 56.4676 18.6174 57.0613 18.4973V20.8995C56.1114 21.0196 55.0427 21.1397 53.8553 21.1397C51.1243 21.1397 49.9369 19.8185 49.9369 17.6565V8.04755H46.8496V5.88554H49.9369V1.32129H50.0556Z" fill="#121417"/>
<path fill-rule="evenodd" clip-rule="evenodd" d="M77.9594 7.80751C75.3471 7.80751 73.091 9.00863 73.091 11.7712V20.7796H70.2413V11.2907C70.2413 8.52818 68.4602 7.80751 66.6791 7.80751C64.0668 7.80751 61.8107 9.24885 61.8107 12.2516V20.7796H58.9609V5.88572H61.8107V8.16784C63.2356 6.00583 65.4917 5.40527 67.629 5.40527C69.5288 5.40527 71.4287 6.24606 72.6161 8.16784C73.9222 6.48628 75.8221 5.40527 78.5531 5.40527C80.0967 5.40527 84.1339 6.12594 84.1339 10.6902V20.7796H81.2841V11.2907C81.2841 8.52779 79.7405 7.80751 77.9594 7.80751Z" fill="#121417"/>
<path fill-rule="evenodd" clip-rule="evenodd" d="M87.4585 10.5701C87.8148 6.84661 90.427 5.40527 94.8204 5.40527C97.7889 5.40527 101.589 6.12594 101.589 9.60918V17.5366C101.589 18.3773 101.945 18.8578 102.895 18.8578C103.251 18.8578 103.607 18.8578 103.845 18.7377V20.6595C103.132 20.7796 102.301 20.7796 101.589 20.7796C100.164 20.7796 99.2138 20.4192 99.0951 18.7377C97.9077 20.2991 95.1767 21.1399 92.8019 21.1399C87.9335 21.1399 86.7461 18.6176 86.7461 16.6958C86.7461 13.9332 88.4085 12.612 93.1581 12.1315L96.3641 11.7712C97.9077 11.6511 98.9763 11.2907 98.9763 9.96952C98.9763 7.92762 96.9578 7.56728 94.7017 7.56728C92.3269 7.56728 90.1896 8.16784 90.0708 10.5701C90.0708 10.6902 87.4585 10.6902 87.4585 10.5701ZM98.9763 12.9723C98.5013 13.4528 97.7889 13.693 96.2453 13.8131L93.0393 14.1734C90.7832 14.4136 89.7146 15.0142 89.7146 16.5757C89.7146 18.017 91.1394 18.9779 93.158 18.9779C96.364 18.9779 99.095 17.2963 99.095 14.774V12.9723H98.9763Z" fill="#121417"/>
<path fill-rule="evenodd" clip-rule="evenodd" d="M120.587 15.2544C119.4 19.6986 116.669 21.26 112.869 21.26C106.932 21.26 104.795 17.2963 104.795 13.4528C104.795 9.00863 107.526 5.40527 112.869 5.40527C116.788 5.40527 119.994 7.20695 120.587 10.8103H117.619C117.263 8.88851 115.719 7.6874 113.107 7.6874C109.545 7.6874 107.882 10.0896 107.882 13.2125C107.882 16.3354 109.545 18.7377 113.107 18.7377C115.6 18.7377 117.025 17.6567 117.619 15.1343H120.587V15.2544Z" fill="#121417"/>
<path fill-rule="evenodd" clip-rule="evenodd" d="M3.62789 30.1483C16.4518 30.1483 24.4075 31.1092 37.2314 31.1092C43.5247 31.1092 49.6992 31.3494 55.8737 30.3885C58.3672 30.0282 60.6233 29.7879 62.9981 30.2684C65.6104 30.869 67.7477 32.4304 70.2412 33.2712C72.6161 34.112 75.1096 33.5114 77.3657 32.7907C79.8592 32.0701 82.1153 31.1092 84.6088 30.2684C86.8649 29.5477 88.8835 29.6678 91.0208 30.5086C93.0394 31.3494 94.8205 32.5505 96.8391 33.3913C101.232 35.3131 106.101 35.6734 110.732 34.8326C115.719 33.9919 120.35 31.7097 124.862 29.4276C125.218 29.1874 124.743 26.7852 124.981 26.665C119.993 29.3075 114.65 32.5505 108.832 33.1511C103.489 33.7516 98.5015 31.7097 93.7518 29.0673C91.6145 27.8662 89.3585 26.7852 86.8649 26.9053C85.5588 27.0254 84.2526 27.5058 83.0652 27.8662C81.6403 28.3466 80.2154 28.9472 78.7906 29.4276C76.1783 30.2684 73.3285 31.1092 70.5975 30.3885C68.1039 29.6678 65.9666 27.9863 63.3543 27.3857C61.217 26.7852 59.1984 26.9053 57.0611 27.2656C54.4488 27.6259 51.9552 27.8662 49.3429 27.9863C45.7807 28.1064 44.1184 28.2265 38.4188 28.1064C27.2572 28.3466 14.9082 27.0254 3.50914 27.0254C3.3904 27.1455 3.50914 30.1483 3.62789 30.1483Z" fill="#FFCE00"/>
<path fill-rule="evenodd" clip-rule="evenodd" d="M0.0659669 33.9917C7.30913 34.4721 12.415 34.7124 18.8269 34.9526C22.0329 35.0727 20.7268 34.9526 23.9328 34.9526C26.7826 34.9526 29.6323 34.9526 32.2446 34.1118C34.7382 33.3911 37.2317 31.4693 39.4878 30.2682C41.7438 29.1872 43.8812 27.9861 46.4935 27.7459C51.1243 27.3855 54.924 31.3492 58.3675 33.9917C62.1672 36.9945 66.4418 42.2794 71.3102 42.88C77.0097 43.4805 81.2844 36.3939 85.6778 33.5112C90.4274 30.3883 96.6019 30.7487 102.064 31.2291C104.676 31.4693 107.17 31.5895 109.782 31.9498C111.682 32.19 114.057 32.5504 115.838 31.4693C116.075 31.3492 115.957 29.9079 115.957 29.7878V29.5476C114.175 30.7487 111.682 30.2682 109.663 30.028C106.932 29.6677 104.201 28.8269 101.47 28.5867C98.383 28.3464 95.2958 28.2263 92.3272 28.7068C89.4775 29.1872 87.1027 30.1481 84.7279 31.7096C82.2343 33.3911 79.9782 37.7152 77.366 39.0364C75.9411 39.7571 74.5162 41.0783 72.9726 41.0783C71.9039 41.0783 70.1228 40.2375 69.7666 39.8772C64.6607 38.676 60.5048 32.7906 56.4676 29.6677C53.1429 27.1453 49.3432 24.2626 45.0686 25.2235C42.6938 25.704 40.5564 27.866 38.4191 28.947C36.163 30.028 33.7882 31.109 31.4134 31.7096C28.6824 32.3101 25.8326 32.3101 23.1016 32.19C20.0144 32.0699 18.7082 32.0699 15.621 31.9498C9.44646 31.7096 7.30913 31.3492 0.422188 30.9889C-0.0527735 30.9889 -0.0527735 33.9917 0.0659669 33.9917Z" fill="#F20DA1"/>
<path fill-rule="evenodd" clip-rule="evenodd" d="M93.7521 29.1867C93.5146 29.0666 93.2664 28.8535 92.9102 28.6133C92.6727 28.6133 92.4319 28.7041 92.1484 28.7519C90.7236 28.9922 89.5679 29.3412 88.2617 29.8216C89.2116 29.9417 90.0712 30.2677 91.0211 30.6281C91.496 30.8683 91.8523 30.9185 92.3272 31.1587C93.9896 30.9185 95.6716 30.921 97.334 30.921C96.0278 30.3204 94.9395 29.7873 93.7521 29.1867Z" fill="#DF2620"/>
<path fill-rule="evenodd" clip-rule="evenodd" d="M56.4674 29.6679C55.6362 28.9472 54.6863 28.3466 53.7363 27.626C52.3115 27.7461 50.8866 27.8662 49.3429 27.9863C49.2242 27.9863 49.2242 27.9863 49.1055 27.9863C50.8866 28.4668 52.5489 29.4277 54.0926 30.6288C54.6863 30.5087 55.28 30.5087 55.8737 30.3885C56.3486 30.2684 56.7049 30.2684 57.1798 30.2684C56.9423 30.1483 56.7049 29.9081 56.4674 29.6679Z" fill="#DF2620"/>
<path fill-rule="evenodd" clip-rule="evenodd" d="M39.7754 28.168C39.2578 28.4552 37.998 29.1188 37.998 29.1188C37.998 29.1188 35.1389 30.4694 33.4766 31.0699C34.664 31.0699 36.7285 31.0699 36.7285 31.0699C36.7285 31.0699 37.7004 31.0699 38.0566 31.0699C38.5316 30.8297 38.6758 30.7006 39.1508 30.4604C40.8131 29.6196 42.5939 28.6484 44.375 28.168C43.0689 28.168 41.6752 28.168 39.7754 28.168Z" fill="#DF2620"/>
<path fill-rule="evenodd" clip-rule="evenodd" d="M115.957 31.2295C115.126 31.5898 114.176 31.9502 113.345 32.1904C114.176 32.1904 115.126 31.9502 115.838 31.4697C115.838 31.4697 115.957 31.3496 115.957 31.2295Z" fill="#DF2620"/>
<path fill-rule="evenodd" clip-rule="evenodd" d="M31.1761 40.1172C36.4007 40.3575 43.4064 40.8379 48.6309 39.9971C51.0057 39.6368 53.1431 38.9161 55.0429 37.3547C56.7053 36.0334 58.2489 34.472 60.3862 34.2318C62.8798 33.9915 64.8984 35.6731 66.442 37.4748C67.9856 39.2765 68.8168 41.6787 71.3103 42.6396C74.7538 43.9608 76.4162 40.2374 78.4348 38.1955C79.6222 36.9943 81.0471 36.2737 82.7094 36.634C84.4905 36.9943 86.1529 38.3156 87.459 39.3966C90.3088 41.6787 93.7523 44.5614 97.3145 41.9189C98.5019 41.0781 99.4518 39.7569 100.52 38.796C101.945 37.5949 103.37 37.2346 105.151 37.3547C107.526 37.4748 109.901 38.3156 112.276 38.4357C114.176 38.5558 116.55 38.0753 118.213 36.9943C118.45 36.8742 118.332 35.4329 118.332 35.3128C118.332 35.1927 118.332 34.3519 118.332 34.3519C116.432 35.6731 113.701 36.0334 111.445 35.7932C108.832 35.553 106.22 34.5921 103.608 34.8323C99.9268 35.1927 98.6206 39.9971 94.9397 40.4776C91.0212 41.0781 88.0527 36.9943 85.0842 35.0725C83.6593 34.1117 81.8782 33.6312 80.2159 34.3519C78.791 34.9524 77.8411 36.2737 77.0099 37.4748C75.9412 38.4357 75.11 39.6368 73.5664 39.9971C71.5478 40.4776 69.5292 39.1563 68.4606 37.715C67.0357 35.7932 65.8483 33.6312 63.711 32.31C61.6924 31.1089 59.4363 31.4692 57.5365 32.6703C55.7554 33.8714 54.3305 35.553 52.3119 36.3938C49.9371 37.3547 47.0873 37.5949 44.475 37.8351C39.6067 38.1955 34.7383 37.715 29.8699 37.4748C19.3021 36.9943 14.0775 37.5949 3.62832 37.5949C3.39084 37.5949 3.50958 40.4776 3.62832 40.4776C3.62832 40.4776 25.5953 39.9971 31.1761 40.1172Z" fill="#0DBFF2"/>
<path fill-rule="evenodd" clip-rule="evenodd" d="M61.3989 34.2394C60.5677 33.3986 59.8595 32.6474 59.0283 31.9268C58.5669 32.11 58.3516 32.1983 57.9321 32.4344C57.5959 32.6236 57.312 32.8082 57.0996 32.9741C57.5746 33.3345 58.4213 33.9831 58.4213 33.9831C58.4213 33.9831 58.825 34.3186 59.0625 34.5588C59.5375 34.4387 59.7632 34.344 60.2255 34.2782C60.6864 34.2126 60.9521 34.227 61.3989 34.2394Z" fill="#1C1AB3"/>
<path fill-rule="evenodd" clip-rule="evenodd" d="M72.334 42.9351C73.0531 43.002 73.5662 42.8795 74.1599 42.6393C75.7035 41.9187 76.8253 40.0878 78.0127 38.6465C77.7752 38.7666 77.3193 39.0872 77.3193 39.0872C77.3193 39.0872 74.3974 41.0779 72.8538 41.0779C71.7851 41.0779 69.5312 40.0826 69.5312 40.0826C69.5312 40.0826 68.3003 39.4476 67.5879 39.0872C68.5378 40.5286 69.4103 41.9187 71.1914 42.6393C71.6664 42.8795 71.8754 42.8924 72.334 42.9351Z" fill="#1C1AB3"/>
<path fill-rule="evenodd" clip-rule="evenodd" d="M82.3291 34.0215C81.3683 35.1548 80.5213 36.2479 79.5605 37.2553C80.4012 36.7516 81.0986 36.5223 82.0752 36.5471C82.7958 35.7916 83.5323 35.2156 84.2529 34.586C83.5323 34.2083 82.9296 34.0215 82.3291 34.0215Z" fill="#1C1AB3"/>
</svg>
