<?xml version="1.0" encoding="UTF-8"?><svg id="Layer_1" xmlns="http://www.w3.org/2000/svg" xmlns:xlink="http://www.w3.org/1999/xlink" viewBox="0 0 982.1 177.75"><defs><style>.cls-1{fill:url(#linear-gradient-2);}.cls-2{fill:#00a7de;}.cls-3{fill:url(#linear-gradient-4);}.cls-4{fill:url(#linear-gradient-3);}.cls-5{fill:#5b6770;}.cls-6{fill:none;stroke:#5b6770;stroke-linecap:round;stroke-miterlimit:10;stroke-width:2px;}.cls-7{fill:url(#linear-gradient);}</style><linearGradient id="linear-gradient" x1="90.33" y1="108.71" x2="226.56" y2="79.73" gradientTransform="translate(0 165.3) scale(1 -1)" gradientUnits="userSpaceOnUse"><stop offset=".1" stop-color="#00a7e1"/><stop offset=".4" stop-color="#00a0da"/><stop offset=".9" stop-color="#234491"/></linearGradient><linearGradient id="linear-gradient-2" x1="426.92" y1="-435.79" x2="447.12" y2="-321.59" gradientTransform="translate(0 -315) scale(1 -1)" gradientUnits="userSpaceOnUse"><stop offset="0" stop-color="#da242a"/><stop offset="0" stop-color="#e3402d"/><stop offset=".1" stop-color="#e55a2a"/><stop offset=".2" stop-color="#eb672f"/><stop offset=".2" stop-color="#ed6e32"/><stop offset=".4" stop-color="#ef5527"/><stop offset=".5" stop-color="#af4326"/><stop offset=".6" stop-color="#653123"/><stop offset=".7" stop-color="#372320"/><stop offset=".7" stop-color="#231f20"/></linearGradient><linearGradient id="linear-gradient-3" x1="371.79" y1="-404.4" x2="534.99" y2="-443.6" gradientTransform="translate(0 -315) scale(1 -1)" gradientUnits="userSpaceOnUse"><stop offset="0" stop-color="#13a6df"/><stop offset=".4" stop-color="#076aaa"/><stop offset=".5" stop-color="#12569e"/><stop offset=".6" stop-color="#214995"/><stop offset=".7" stop-color="#22468f"/><stop offset=".7" stop-color="#234995"/><stop offset=".8" stop-color="#20569f"/><stop offset=".9" stop-color="#156ab0"/><stop offset=".9" stop-color="#1786c6"/><stop offset="1" stop-color="#13a6df"/></linearGradient><linearGradient id="linear-gradient-4" x1="444.92" y1="-312.13" x2="414.52" y2="-409.23" gradientTransform="translate(0 -315) scale(1 -1)" gradientUnits="userSpaceOnUse"><stop offset="0" stop-color="#e11d38"/><stop offset=".9" stop-color="#86191a"/><stop offset="1" stop-color="#86191a"/></linearGradient></defs><path class="cls-7" d="M206,20.05c41.2,38.2,21.9,107.5-32.7,119.2-53.2,11.4-98.6-39.8-80.5-91.4C109.4.65,169.3-14.15,206.1,20.05h-.1ZM157,34.25c-29.7,1.4-45.9,35.5-27.7,59.2,17,22.1,51.8,17.8,62.9-7.8,10.7-24.8-8.2-52.7-35.2-51.4Z"/><path class="cls-2" d="M48,88.65h18.9v-21.5c.8-.5,1.9-.6,2.9-.8,3.5-.6,6.8-.7,10.4-.8s3.1-.5,3.5,0c0,3.1-.3,6.3-.1,9.4.2,5,1.3,10.5,2.6,15.3,2.8,9.9,8,19.2,14.8,26.9h-2.1v22.6c-1.4.7-3.4,1-5,1.2-5.7.8-12.4.8-18.1.4s-5.9-.8-8.8-1.3v-22.8H5.7c-.9-1.7-2.5-3.8-3.2-5.5s-.2-.4,0-.7L54.4.05c.5-.3,6.3.9,7.3,1.2,7,1.6,13.9,4.1,19.7,8.3.4.3,1.7,1.2,1.8,1.5l-35,77.5-.2.1Z"/><path class="cls-5" d="M537.5,66.85c0-1.6-.9-2.6-2.6-2.6h-4.4v-16.9h17.8c5.5,0,8.5,2.2,8.5,7.7v3.1c0,1.9-.2,3-.2,3h.2c2.6-8.1,10.1-14.9,19.1-14.9s2.3.2,2.3.2v19.8s-1.6-.3-4.1-.3c-4.8,0-12.6,1.5-15.5,10.5-.7,2.2-1,4.9-1,8.1v22.7h-20.1v-40.5.1Z"/><path class="cls-5" d="M612.7,45.95c17.7,0,27.7,12.3,27.7,28.9s-.5,6-.5,6h-37.8c1.5,7.6,7.5,10.9,13.9,10.9s15.9-6.3,15.9-6.3l8,13.5s-9.6,9.5-25.6,9.5-32.9-15.5-32.9-31.4,11.9-31.3,31.2-31.3l.1.2ZM619.8,68.75c0-3.7-2.9-7.7-7.1-7.7s-8.7,3.3-10,7.7h17.1Z"/><path class="cls-5" d="M655.6,84.85s8.4,8.6,17.6,8.6,4.5-.8,4.5-2.9c0-5-30-6.6-30-26s12-18.5,24.6-18.5,23.3,2.8,23.3,13.6v7.1h-17.4v-2.9c0-1.6-2.6-2.8-5.5-2.8s-5.3.9-5.3,2.8c0,6.2,30.3,5.3,30.3,25.5s-10.6,19.4-24.5,19.4-26.5-10.9-26.5-10.9l8.9-12.9v-.1Z"/><path class="cls-5" d="M710.8,66.85c0-1.6-.9-2.6-2.6-2.6h-4.4v-16.9h18.6c5.9,0,8.5,2.6,8.5,8.5v32c0,1.6.9,2.6,2.6,2.6h4.4v16.9h-18.6c-5.9,0-8.5-2.6-8.5-8.5v-32ZM712.4,24.15h16.9v16.3h-16.9v-16.3Z"/><path class="cls-5" d="M749.7,66.85c0-1.6-.9-2.6-2.6-2.6h-4.4v-16.9h18c5.5,0,8.4,2.7,8.4,6.7v.8c0,.6-.1,1.4-.1,1.4h.2c2.8-4.2,8.1-10.3,17.6-10.3s13.6,3.4,16.7,10.1h.2c3.1-5,10.2-10.1,19.2-10.1s19.4,5.9,19.4,22.4v19.4c0,1.6.9,2.6,2.6,2.6h4.4v16.9h-18.6c-5.9,0-8.5-2.6-8.5-8.5v-27c0-4.4-.8-7.6-4.7-7.6-6,0-9.5,4.9-10.8,11.5-.5,2.1-.7,4.3-.7,6.7v24.8h-20.1v-35.5c0-4.4-.8-7.6-4.6-7.6-5.9,0-9.3,4.6-10.7,11-.5,2.2-.8,4.6-.8,7.2v24.8h-20.1v-40.5.3Z"/><path class="cls-5" d="M889.3,69.65h.8v-.7c0-5.7-2.7-7.8-7.7-7.8s-5.2.6-5.2,2.9v2.7h-18.6v-6.6c0-13.4,17-14.1,23.8-14.1,20.9,0,27.8,10.7,27.8,24.4v17.4c0,1.6.9,2.6,2.6,2.6h4.4v16.9h-17.4c-5.8,0-7.9-3.6-7.9-6.3v-1h-.2s-4.2,8.7-16.7,8.7-20.3-7.4-20.3-19.3c0-17.8,25.5-19.8,34.8-19.8h-.2ZM880.5,93.35c5.2,0,9.9-5.7,9.9-10.6v-.9h-1.9c-6.4,0-13.7,1.7-13.7,6.5s1.7,5,5.7,5Z"/><path class="cls-5" d="M956,45.95c8.4,0,22.1,3.3,22.1,14.1v8.3h-17.4v-3.1c0-1.9-2.2-2.6-4.6-2.6-8.5,0-13.6,6.4-13.6,14.4s7.7,14.3,15.1,14.3,16.5-7.8,16.5-7.8l8,13.5s-9.4,11.6-26.5,11.6-33.4-14.9-33.4-31.4,11.2-31.3,33.8-31.3Z"/><line class="cls-6" x1="289.7" y1="22.15" x2="289.7" y2="132.55"/><path class="cls-5" d="M5,171.05l-5-8.7h3.1l2.3,4.4c.5.9.9,2,.9,2h0s.4-1.1.9-2l2.3-4.4h3.1l-5,8.7v6.2h-2.7v-6.2h.1Z"/><path class="cls-5" d="M16.7,162.45h8.9v2.3h-6.2v3.9h5v2.3h-5v4h6.5v2.3h-9.3v-14.9l.1.1Z"/><path class="cls-5" d="M38.3,173.45h-5.2l-1.3,3.8h-2.8l5.2-14.9h2.8l5.2,14.9h-2.8l-1.3-3.8h.2ZM35.6,164.95s-.3,1.5-.6,2.3l-1.3,4h3.9l-1.3-4c-.3-.8-.6-2.3-.6-2.3h-.1Z"/><path class="cls-5" d="M46.3,162.45h4.8c1.6,0,2.4.1,3,.4,1.5.7,2.4,2.1,2.4,4.1s-.9,3.4-2.5,4.1h0s.2.3.5.8l3.1,5.6h-3l-3-5.6h-2.6v5.6h-2.7v-15ZM51.5,169.45c1.4,0,2.4-.9,2.4-2.4s-.6-2.3-2.7-2.3h-2.1v4.7h2.4Z"/><path class="cls-5" d="M62.6,173.45s1.6,1.6,3.7,1.6,2.2-.6,2.2-1.8c0-2.7-7-2.2-7-6.8s2.1-4.3,5-4.3,4.4,1.6,4.4,1.6l-1.2,2.2s-1.4-1.3-3.3-1.3-2.2.7-2.2,1.8c0,2.6,7,2,7,6.8s-1.8,4.4-4.9,4.4-5.1-2-5.1-2l1.5-2-.1-.2Z"/><path class="cls-5" d="M89.8,162.15c4.4,0,7.7,3.3,7.7,7.6s-3.3,7.8-7.7,7.8-7.7-3.4-7.7-7.8,3.3-7.6,7.7-7.6ZM89.8,175.05c2.7,0,4.9-2.3,4.9-5.3s-2.2-5.1-4.9-5.1-4.9,2.2-4.9,5.1,2.2,5.3,4.9,5.3Z"/><path class="cls-5" d="M102.4,162.45h8.6v2.3h-5.9v4.2h4.9v2.3h-4.9v6h-2.7v-14.9.1Z"/><path class="cls-5" d="M123.1,173.45s1.6,1.6,3.7,1.6,2.2-.6,2.2-1.8c0-2.7-7-2.2-7-6.8s2.1-4.3,5-4.3,4.4,1.6,4.4,1.6l-1.2,2.2s-1.4-1.3-3.3-1.3-2.2.7-2.2,1.8c0,2.6,7,2,7,6.8s-1.8,4.4-4.9,4.4-5.1-2-5.1-2l1.5-2-.1-.2Z"/><path class="cls-5" d="M136.3,162.45h2.7v9.6c0,2,1.3,3.1,3.3,3.1s3.3-1.1,3.3-3.1v-9.5h2.7v9.6c0,3.3-2.4,5.6-6,5.6s-6-2.3-6-5.6v-9.7Z"/><path class="cls-5" d="M160.7,162.15c3.6,0,5.5,2,5.5,2l-1.3,2s-1.7-1.6-4.1-1.6-5,2.4-5,5.1,1.9,5.3,5,5.3,4.3-1.9,4.3-1.9l1.4,2s-2.1,2.4-5.9,2.4-7.7-3.4-7.7-7.8,3.3-7.6,7.7-7.6l.1.1Z"/><path class="cls-5" d="M177.7,162.15c3.6,0,5.5,2,5.5,2l-1.3,2s-1.7-1.6-4.1-1.6-5,2.4-5,5.1,1.9,5.3,5,5.3,4.3-1.9,4.3-1.9l1.4,2s-2.1,2.4-5.9,2.4-7.7-3.4-7.7-7.8,3.3-7.6,7.7-7.6l.1.1Z"/><path class="cls-5" d="M188.2,162.45h8.9v2.3h-6.2v3.9h5v2.3h-5v4h6.5v2.3h-9.3v-14.9l.1.1Z"/><path class="cls-5" d="M202.7,173.45s1.6,1.6,3.7,1.6,2.2-.6,2.2-1.8c0-2.7-7-2.2-7-6.8s2.1-4.3,5-4.3,4.4,1.6,4.4,1.6l-1.2,2.2s-1.4-1.3-3.3-1.3-2.2.7-2.2,1.8c0,2.6,7,2,7,6.8s-1.8,4.4-4.9,4.4-5.1-2-5.1-2l1.5-2-.1-.2Z"/><path class="cls-5" d="M216.4,173.45s1.6,1.6,3.7,1.6,2.2-.6,2.2-1.8c0-2.7-7-2.2-7-6.8s2.1-4.3,5-4.3,4.4,1.6,4.4,1.6l-1.2,2.2s-1.4-1.3-3.3-1.3-2.2.7-2.2,1.8c0,2.6,7,2,7,6.8s-1.8,4.4-4.9,4.4-5.1-2-5.1-2l1.5-2-.1-.2Z"/><path class="cls-1" d="M433.7,5.45c-5,0-10,.6-14.3,1.2,35.5,4.4,61.7,19.9,61.7,38.6s-37.4,39.9-83.5,39.9-15.6-.6-23.1-1.2c10.6,18.1,33,30.5,59.2,30.5s64.2-23.1,65.5-54.9c0-29.9-29.3-54.2-65.5-54.2v.1Z"/><path class="cls-4" d="M397.6,117.65c24.3,8.7,96.6,48.6,109.7,5.6,1.2-5,6.2-41.1,2.5-27.4-8.1,26.2-72.9-4.4-87.9-9.4-29.9-10.6-53-23.7-63,13.7,0,0-.6,1.2.6,1.9l38,15.6h.1Z"/><path class="cls-3" d="M482.3,12.25c-24.9-16.8-51.7-14.3-75.4-4.4-28.1,11.8-44.3,26.8-50.6,33-.6,0-1.2,1.2-1.9,1.9h0c-1.9,1.9-3.1,4.4-3.1,6.9-.6,3.7,0,27.4,1.2,24.3,2.5-5,6.2-8.1,10-11.2h0c27.4-26.2,68.6-28.1,68.6-28.1,74.2-1.2,57.3,55.5,57.3,55.5,36.2-49.2-6.1-77.9-6.1-77.9Z"/></svg>