<svg version="1.1" id="Layer_1" xmlns:x="ns_extend;" xmlns:i="ns_ai;" xmlns:graph="ns_graphs;" xmlns="http://www.w3.org/2000/svg" xmlns:xlink="http://www.w3.org/1999/xlink" x="0px" y="0px" viewBox="0 0 361 87" style="enable-background:new 0 0 361 87;" xml:space="preserve">
 <style type="text/css">
  .st0{fill:#190079;}
	.st1{fill:#00F7AF;}
 </style>
 <metadata>
  <sfw xmlns="ns_sfw;">
   <slices>
   </slices>
   <sliceSourceBounds bottomLeftOrigin="true" height="86.8" width="360.1" x="0" y="0.2">
   </sliceSourceBounds>
  </sfw>
 </metadata>
 <g>
  <g>
   <g>
    <path class="st0" d="M169.2,55.5c0,17.8-11.8,31.1-28.9,31.1c-10.2,0-17.6-4.6-21.9-12.1l-0.2,8.9c0,1.1-0.5,1.7-1.6,1.7h-7
				c-1.1,0-1.7-0.6-1.7-1.7V1.7c0-1.1,0.6-1.7,1.7-1.7h7.6c1.1,0,1.7,0.6,1.7,1.7v34.1c4.3-7,11.6-11.4,21.4-11.4
				C157.4,24.5,169.2,37.9,169.2,55.5L169.2,55.5z M158.6,55.5c0-12.4-8.5-21-20.2-21s-19.7,8.6-19.7,21.1s8.1,20.9,19.7,20.9
				S158.6,68.1,158.6,55.5z">
    </path>
    <path class="st0" d="M236.7,27.6v55.8c0,1.1-0.6,1.7-1.7,1.7h-7c-1.1,0-1.6-0.6-1.6-1.7l-0.2-8.9c-4.2,7.5-11.7,12.1-21.9,12.1
				c-17,0-28.9-13.3-28.9-31.1s11.8-31,28.9-31c10.1,0,17.6,4.7,21.9,12.2l0.2-9.1c0-1.1,0.5-1.7,1.6-1.7h7
				C236.1,25.9,236.7,26.5,236.7,27.6z M226,55.7c0-12.6-8.1-21.1-19.7-21.1s-20.2,8.6-20.2,21s8.5,21,20.2,21S226,68.2,226,55.7z">
    </path>
    <path class="st0" d="M299.3,48.6v34.8c0,1.1-0.6,1.7-1.7,1.7H290c-1.1,0-1.6-0.6-1.6-1.7V50.7c0-9.9-5.7-16.2-14.8-16.2
				c-9.1,0-16.4,6.3-16.4,16.2v32.8c0,1.1-0.5,1.7-1.6,1.7H248c-1.1,0-1.7-0.6-1.7-1.7V27.6c0-1.1,0.6-1.7,1.7-1.7h7.1
				c1.2,0,1.7,0.5,1.7,1.8l0.4,7.5c3.4-6,10.1-10.8,19.6-10.8C289.6,24.5,299.3,33.1,299.3,48.6z">
    </path>
    <path class="st0" d="M358.6,85.1h-8.1c-1,0-1.6-0.2-2.2-1.1l-19.8-25.6l-9.4,10.4v14.6c0,1.1-0.6,1.7-1.7,1.7h-7.6
				c-1.1,0-1.7-0.6-1.7-1.7V1.7c0-1.1,0.6-1.7,1.7-1.7h7.6c1.1,0,1.7,0.6,1.7,1.7v53.6l25.5-28.4c0.6-0.7,1.2-1,2.1-1h9.2
				c1.3,0,1.6,1,0.7,1.9l-21.3,23.3l24.4,31.9C360.6,84.2,360.1,85.1,358.6,85.1">
    </path>
    <path class="st0" d="M98.4,27.2v32.2c0,15.6-12,27.4-28,27.4S42.3,75,42.3,59.4V27.2c0-0.8,0.4-1.3,1.2-1.3h8.6
				c0.8,0,1.2,0.5,1.2,1.3V58c0.2,10.4,7.7,18.5,17,18.5s16.9-8.5,16.9-19V27.2c0-0.8,0.4-1.3,1.2-1.3h8.6
				C97.9,26,98.4,26.4,98.4,27.2">
    </path>
    <path class="st1" d="M12.8,50.2C5.8,50.2,0,44.5,0,37.4s5.8-12.8,12.8-12.8s12.8,5.8,12.8,12.8S19.9,50.2,12.8,50.2z">
    </path>
    <path class="st1" d="M12.8,86.8C5.8,86.8,0,81,0,74c0-7.1,5.8-12.8,12.8-12.8S25.7,66.9,25.7,74C25.7,81,19.9,86.8,12.8,86.8z">
    </path>
   </g>
  </g>
 </g>
</svg>